<mxfile host="Electron" agent="Mozilla/5.0 (Windows NT 10.0; Win64; x64) AppleWebKit/537.36 (KHTML, like Gecko) draw.io/26.0.9 Chrome/128.0.6613.186 Electron/32.2.5 Safari/537.36" version="26.0.9">
  <diagram id="C5RBs43oDa-KdzZeNtuy" name="Page-1">
    <mxGraphModel dx="2901" dy="1196" grid="1" gridSize="10" guides="1" tooltips="1" connect="1" arrows="1" fold="1" page="1" pageScale="1" pageWidth="827" pageHeight="1169" math="0" shadow="0">
      <root>
        <mxCell id="WIyWlLk6GJQsqaUBKTNV-0" />
        <mxCell id="WIyWlLk6GJQsqaUBKTNV-1" parent="WIyWlLk6GJQsqaUBKTNV-0" />
        <mxCell id="zAAHTgH2nLlH8yWDlz5y-14" style="edgeStyle=orthogonalEdgeStyle;rounded=0;orthogonalLoop=1;jettySize=auto;html=1;" parent="WIyWlLk6GJQsqaUBKTNV-1" source="zAAHTgH2nLlH8yWDlz5y-0" edge="1">
          <mxGeometry relative="1" as="geometry">
            <mxPoint x="-260" y="587.5" as="targetPoint" />
          </mxGeometry>
        </mxCell>
        <mxCell id="zAAHTgH2nLlH8yWDlz5y-24" style="edgeStyle=orthogonalEdgeStyle;rounded=0;orthogonalLoop=1;jettySize=auto;html=1;entryX=0;entryY=0.5;entryDx=0;entryDy=0;" parent="WIyWlLk6GJQsqaUBKTNV-1" source="zAAHTgH2nLlH8yWDlz5y-0" target="zAAHTgH2nLlH8yWDlz5y-21" edge="1">
          <mxGeometry relative="1" as="geometry">
            <Array as="points">
              <mxPoint x="-340" y="587" />
              <mxPoint x="-340" y="230" />
              <mxPoint x="-180" y="230" />
            </Array>
          </mxGeometry>
        </mxCell>
        <mxCell id="NFaxHCr0lCRyJI4APLwD-33" style="edgeStyle=orthogonalEdgeStyle;rounded=0;orthogonalLoop=1;jettySize=auto;html=1;entryX=0;entryY=0.5;entryDx=0;entryDy=0;" edge="1" parent="WIyWlLk6GJQsqaUBKTNV-1" source="zAAHTgH2nLlH8yWDlz5y-0" target="zAAHTgH2nLlH8yWDlz5y-1">
          <mxGeometry relative="1" as="geometry">
            <Array as="points">
              <mxPoint x="-260" y="588" />
              <mxPoint x="-260" y="680" />
            </Array>
          </mxGeometry>
        </mxCell>
        <mxCell id="NFaxHCr0lCRyJI4APLwD-34" style="edgeStyle=orthogonalEdgeStyle;rounded=0;orthogonalLoop=1;jettySize=auto;html=1;entryX=0;entryY=0.5;entryDx=0;entryDy=0;" edge="1" parent="WIyWlLk6GJQsqaUBKTNV-1" source="zAAHTgH2nLlH8yWDlz5y-0" target="zAAHTgH2nLlH8yWDlz5y-2">
          <mxGeometry relative="1" as="geometry">
            <Array as="points">
              <mxPoint x="-260" y="588" />
              <mxPoint x="-260" y="460" />
            </Array>
          </mxGeometry>
        </mxCell>
        <mxCell id="NFaxHCr0lCRyJI4APLwD-35" style="edgeStyle=orthogonalEdgeStyle;rounded=0;orthogonalLoop=1;jettySize=auto;html=1;entryX=0;entryY=0.5;entryDx=0;entryDy=0;" edge="1" parent="WIyWlLk6GJQsqaUBKTNV-1" source="zAAHTgH2nLlH8yWDlz5y-0" target="zAAHTgH2nLlH8yWDlz5y-8">
          <mxGeometry relative="1" as="geometry">
            <Array as="points">
              <mxPoint x="-260" y="588" />
              <mxPoint x="-260" y="940" />
            </Array>
          </mxGeometry>
        </mxCell>
        <mxCell id="zAAHTgH2nLlH8yWDlz5y-0" value="Home Page" style="rounded=0;whiteSpace=wrap;html=1;" parent="WIyWlLk6GJQsqaUBKTNV-1" vertex="1">
          <mxGeometry x="-630" y="555" width="120" height="65" as="geometry" />
        </mxCell>
        <mxCell id="NFaxHCr0lCRyJI4APLwD-28" style="edgeStyle=orthogonalEdgeStyle;rounded=0;orthogonalLoop=1;jettySize=auto;html=1;entryX=0;entryY=0.5;entryDx=0;entryDy=0;" edge="1" parent="WIyWlLk6GJQsqaUBKTNV-1" source="zAAHTgH2nLlH8yWDlz5y-1" target="NFaxHCr0lCRyJI4APLwD-2">
          <mxGeometry relative="1" as="geometry">
            <Array as="points">
              <mxPoint x="350" y="680" />
              <mxPoint x="350" y="620" />
            </Array>
          </mxGeometry>
        </mxCell>
        <mxCell id="NFaxHCr0lCRyJI4APLwD-29" style="edgeStyle=orthogonalEdgeStyle;rounded=0;orthogonalLoop=1;jettySize=auto;html=1;entryX=0;entryY=0.5;entryDx=0;entryDy=0;" edge="1" parent="WIyWlLk6GJQsqaUBKTNV-1" source="zAAHTgH2nLlH8yWDlz5y-1" target="NFaxHCr0lCRyJI4APLwD-0">
          <mxGeometry relative="1" as="geometry">
            <Array as="points">
              <mxPoint x="350" y="680" />
              <mxPoint x="350" y="515" />
            </Array>
          </mxGeometry>
        </mxCell>
        <mxCell id="NFaxHCr0lCRyJI4APLwD-30" style="edgeStyle=orthogonalEdgeStyle;rounded=0;orthogonalLoop=1;jettySize=auto;html=1;entryX=0;entryY=0.5;entryDx=0;entryDy=0;" edge="1" parent="WIyWlLk6GJQsqaUBKTNV-1" source="zAAHTgH2nLlH8yWDlz5y-1" target="NFaxHCr0lCRyJI4APLwD-6">
          <mxGeometry relative="1" as="geometry">
            <Array as="points">
              <mxPoint x="350" y="680" />
              <mxPoint x="350" y="755" />
            </Array>
          </mxGeometry>
        </mxCell>
        <mxCell id="zAAHTgH2nLlH8yWDlz5y-1" value="Doctor (Home Page)" style="rounded=0;whiteSpace=wrap;html=1;" parent="WIyWlLk6GJQsqaUBKTNV-1" vertex="1">
          <mxGeometry x="70" y="650" width="120" height="60" as="geometry" />
        </mxCell>
        <mxCell id="NFaxHCr0lCRyJI4APLwD-8" style="edgeStyle=orthogonalEdgeStyle;rounded=0;orthogonalLoop=1;jettySize=auto;html=1;entryX=0;entryY=0.5;entryDx=0;entryDy=0;" edge="1" parent="WIyWlLk6GJQsqaUBKTNV-1" source="zAAHTgH2nLlH8yWDlz5y-2" target="zAAHTgH2nLlH8yWDlz5y-17">
          <mxGeometry relative="1" as="geometry" />
        </mxCell>
        <mxCell id="NFaxHCr0lCRyJI4APLwD-9" style="edgeStyle=orthogonalEdgeStyle;rounded=0;orthogonalLoop=1;jettySize=auto;html=1;entryX=0;entryY=0.5;entryDx=0;entryDy=0;" edge="1" parent="WIyWlLk6GJQsqaUBKTNV-1" source="zAAHTgH2nLlH8yWDlz5y-2" target="zAAHTgH2nLlH8yWDlz5y-19">
          <mxGeometry relative="1" as="geometry" />
        </mxCell>
        <mxCell id="zAAHTgH2nLlH8yWDlz5y-2" value="Patient (Home Page)" style="rounded=0;whiteSpace=wrap;html=1;" parent="WIyWlLk6GJQsqaUBKTNV-1" vertex="1">
          <mxGeometry x="-180" y="430" width="120" height="60" as="geometry" />
        </mxCell>
        <mxCell id="zAAHTgH2nLlH8yWDlz5y-6" value="&lt;font style=&quot;color: rgb(255, 255, 51);&quot;&gt;Patient Login&lt;/font&gt;" style="text;html=1;align=center;verticalAlign=middle;whiteSpace=wrap;rounded=0;" parent="WIyWlLk6GJQsqaUBKTNV-1" vertex="1">
          <mxGeometry x="-330" y="500" width="60" height="30" as="geometry" />
        </mxCell>
        <mxCell id="zAAHTgH2nLlH8yWDlz5y-7" value="&lt;font style=&quot;color: rgb(255, 255, 51);&quot;&gt;Doctor Login&lt;/font&gt;" style="text;html=1;align=center;verticalAlign=middle;whiteSpace=wrap;rounded=0;" parent="WIyWlLk6GJQsqaUBKTNV-1" vertex="1">
          <mxGeometry x="-330" y="630" width="60" height="30" as="geometry" />
        </mxCell>
        <mxCell id="NFaxHCr0lCRyJI4APLwD-19" value="" style="edgeStyle=orthogonalEdgeStyle;rounded=0;orthogonalLoop=1;jettySize=auto;html=1;" edge="1" parent="WIyWlLk6GJQsqaUBKTNV-1" source="zAAHTgH2nLlH8yWDlz5y-8" target="NFaxHCr0lCRyJI4APLwD-18">
          <mxGeometry relative="1" as="geometry" />
        </mxCell>
        <mxCell id="NFaxHCr0lCRyJI4APLwD-24" value="" style="edgeStyle=orthogonalEdgeStyle;rounded=0;orthogonalLoop=1;jettySize=auto;html=1;" edge="1" parent="WIyWlLk6GJQsqaUBKTNV-1" source="zAAHTgH2nLlH8yWDlz5y-8" target="NFaxHCr0lCRyJI4APLwD-23">
          <mxGeometry relative="1" as="geometry" />
        </mxCell>
        <mxCell id="NFaxHCr0lCRyJI4APLwD-25" style="edgeStyle=orthogonalEdgeStyle;rounded=0;orthogonalLoop=1;jettySize=auto;html=1;entryX=0;entryY=0.5;entryDx=0;entryDy=0;" edge="1" parent="WIyWlLk6GJQsqaUBKTNV-1" source="zAAHTgH2nLlH8yWDlz5y-8" target="NFaxHCr0lCRyJI4APLwD-23">
          <mxGeometry relative="1" as="geometry" />
        </mxCell>
        <mxCell id="zAAHTgH2nLlH8yWDlz5y-8" value="Admin (Home Page)" style="rounded=0;whiteSpace=wrap;html=1;" parent="WIyWlLk6GJQsqaUBKTNV-1" vertex="1">
          <mxGeometry x="-180" y="910" width="120" height="60" as="geometry" />
        </mxCell>
        <mxCell id="zAAHTgH2nLlH8yWDlz5y-10" value="&lt;font style=&quot;color: rgb(255, 255, 51);&quot;&gt;Doctor Login&lt;/font&gt;&lt;div&gt;&lt;font style=&quot;color: rgb(255, 255, 51);&quot;&gt;(Admin)&lt;/font&gt;&lt;/div&gt;" style="text;html=1;align=center;verticalAlign=middle;whiteSpace=wrap;rounded=0;" parent="WIyWlLk6GJQsqaUBKTNV-1" vertex="1">
          <mxGeometry x="-330" y="800" width="60" height="30" as="geometry" />
        </mxCell>
        <mxCell id="zAAHTgH2nLlH8yWDlz5y-12" value="-FAQ&#39;s&lt;br&gt;&lt;br&gt;-Home page info (pictures, practices/procedures)&lt;br&gt;&lt;br&gt;-Top right changes to patient profile (adds button: view personal info, view calendar)" style="text;whiteSpace=wrap;html=1;" parent="WIyWlLk6GJQsqaUBKTNV-1" vertex="1">
          <mxGeometry x="-170" y="500" width="290" height="70" as="geometry" />
        </mxCell>
        <mxCell id="zAAHTgH2nLlH8yWDlz5y-13" value="-FAQ&#39;s&lt;br/&gt;&lt;br&gt;-Home page info (pictures, practices/procedures)&lt;br/&gt;&lt;div&gt;&lt;br/&gt;&lt;/div&gt;" style="text;whiteSpace=wrap;html=1;" parent="WIyWlLk6GJQsqaUBKTNV-1" vertex="1">
          <mxGeometry x="-620" y="630" width="290" height="70" as="geometry" />
        </mxCell>
        <mxCell id="zAAHTgH2nLlH8yWDlz5y-15" value="-FAQ&#39;s&lt;br&gt;&lt;br&gt;-Home page info (pictures, practices/procedures)&lt;br&gt;&lt;br&gt;-Top right changes to doctor profile (adds button: view personal info, view appointment history, schedule appointment)" style="text;whiteSpace=wrap;html=1;" parent="WIyWlLk6GJQsqaUBKTNV-1" vertex="1">
          <mxGeometry x="-170" y="730" width="290" height="70" as="geometry" />
        </mxCell>
        <mxCell id="zAAHTgH2nLlH8yWDlz5y-16" value="-FAQ&#39;s&lt;br/&gt;&lt;br&gt;-Home page info (pictures, practices/procedures)&lt;br/&gt;&lt;br&gt;-Top right changes to patient profile (adds button: view personal info, view appointment history, schedule appointment)" style="text;whiteSpace=wrap;html=1;" parent="WIyWlLk6GJQsqaUBKTNV-1" vertex="1">
          <mxGeometry x="-170" y="980" width="290" height="70" as="geometry" />
        </mxCell>
        <mxCell id="zAAHTgH2nLlH8yWDlz5y-17" value="Calendar Page" style="rounded=0;whiteSpace=wrap;html=1;" parent="WIyWlLk6GJQsqaUBKTNV-1" vertex="1">
          <mxGeometry x="330" y="110" width="120" height="60" as="geometry" />
        </mxCell>
        <mxCell id="zAAHTgH2nLlH8yWDlz5y-19" value="Patient (Personal Info)" style="rounded=0;whiteSpace=wrap;html=1;" parent="WIyWlLk6GJQsqaUBKTNV-1" vertex="1">
          <mxGeometry x="330" y="280" width="120" height="60" as="geometry" />
        </mxCell>
        <mxCell id="zAAHTgH2nLlH8yWDlz5y-26" style="edgeStyle=orthogonalEdgeStyle;rounded=0;orthogonalLoop=1;jettySize=auto;html=1;" parent="WIyWlLk6GJQsqaUBKTNV-1" source="zAAHTgH2nLlH8yWDlz5y-21" edge="1">
          <mxGeometry relative="1" as="geometry">
            <mxPoint x="-120" y="430" as="targetPoint" />
            <Array as="points">
              <mxPoint y="227" />
              <mxPoint y="400" />
              <mxPoint x="-120" y="400" />
            </Array>
          </mxGeometry>
        </mxCell>
        <mxCell id="zAAHTgH2nLlH8yWDlz5y-21" value="Create Account Page" style="rounded=0;whiteSpace=wrap;html=1;" parent="WIyWlLk6GJQsqaUBKTNV-1" vertex="1">
          <mxGeometry x="-180" y="195" width="120" height="65" as="geometry" />
        </mxCell>
        <mxCell id="zAAHTgH2nLlH8yWDlz5y-23" value="&lt;font style=&quot;color: rgb(255, 255, 51);&quot;&gt;Create Patient Account&lt;/font&gt;" style="text;html=1;align=center;verticalAlign=middle;whiteSpace=wrap;rounded=0;" parent="WIyWlLk6GJQsqaUBKTNV-1" vertex="1">
          <mxGeometry x="-410" y="390" width="60" height="30" as="geometry" />
        </mxCell>
        <mxCell id="zAAHTgH2nLlH8yWDlz5y-25" value="- Includes Fields:&lt;div&gt;&amp;nbsp; &amp;nbsp; &amp;nbsp; &amp;nbsp; * Name (First, Last)&lt;/div&gt;&lt;div&gt;&amp;nbsp; &amp;nbsp; &amp;nbsp; &amp;nbsp; * Email&lt;/div&gt;&lt;div&gt;&amp;nbsp; &amp;nbsp; &amp;nbsp; &amp;nbsp; * Phone&lt;/div&gt;&lt;div&gt;&amp;nbsp; &amp;nbsp; &amp;nbsp; &amp;nbsp; * Address&lt;/div&gt;&lt;div&gt;- Button: Confirm Information (Creates Patients Accnt)&lt;/div&gt;&lt;div&gt;&lt;br&gt;&lt;/div&gt;" style="text;whiteSpace=wrap;html=1;" parent="WIyWlLk6GJQsqaUBKTNV-1" vertex="1">
          <mxGeometry x="-180" y="260" width="190" height="70" as="geometry" />
        </mxCell>
        <mxCell id="zAAHTgH2nLlH8yWDlz5y-27" value="&lt;font style=&quot;color: rgb(255, 255, 51);&quot;&gt;View calendar button&lt;/font&gt;" style="text;html=1;align=center;verticalAlign=middle;whiteSpace=wrap;rounded=0;" parent="WIyWlLk6GJQsqaUBKTNV-1" vertex="1">
          <mxGeometry x="220" y="80" width="60" height="30" as="geometry" />
        </mxCell>
        <mxCell id="zAAHTgH2nLlH8yWDlz5y-28" value="&lt;font style=&quot;color: rgb(255, 255, 51);&quot;&gt;View/Change Personal Information&lt;/font&gt;" style="text;html=1;align=center;verticalAlign=middle;whiteSpace=wrap;rounded=0;" parent="WIyWlLk6GJQsqaUBKTNV-1" vertex="1">
          <mxGeometry x="220" y="260" width="60" height="30" as="geometry" />
        </mxCell>
        <mxCell id="zAAHTgH2nLlH8yWDlz5y-29" value="- Schedule Appointment button:&lt;div&gt;&amp;nbsp; &amp;nbsp; &amp;nbsp; &amp;nbsp; &amp;nbsp; &amp;nbsp; * Button: Filter by available option: Time/Day, Doctor&lt;/div&gt;&lt;div&gt;&amp;nbsp; &amp;nbsp; &amp;nbsp; &amp;nbsp; &amp;nbsp; &amp;nbsp; * Button: Confirm Appointment&lt;/div&gt;&lt;div&gt;&amp;nbsp; &amp;nbsp; &amp;nbsp; &amp;nbsp; &amp;nbsp; &amp;nbsp; * Display confirmation message&lt;br&gt;&lt;div&gt;- Button: View previous/future appointments&lt;/div&gt;&lt;/div&gt;&lt;div&gt;&amp;nbsp; &amp;nbsp; &amp;nbsp; &amp;nbsp; &amp;nbsp; &amp;nbsp;&amp;nbsp;&lt;/div&gt;" style="text;whiteSpace=wrap;html=1;" parent="WIyWlLk6GJQsqaUBKTNV-1" vertex="1">
          <mxGeometry x="340" y="170" width="340" height="70" as="geometry" />
        </mxCell>
        <mxCell id="zAAHTgH2nLlH8yWDlz5y-30" value="- View all personal information&lt;div&gt;- Button: Change Personal Info:&amp;nbsp;&lt;/div&gt;&lt;div&gt;&amp;nbsp; &amp;nbsp; &amp;nbsp; &amp;nbsp; &amp;nbsp; &amp;nbsp; &amp;nbsp; * Unlock editing mode&lt;/div&gt;&lt;div&gt;&amp;nbsp; &amp;nbsp; &amp;nbsp; &amp;nbsp; &amp;nbsp; &amp;nbsp; &amp;nbsp; * Button: Confirm Changes&amp;nbsp;&lt;/div&gt;" style="text;whiteSpace=wrap;html=1;" parent="WIyWlLk6GJQsqaUBKTNV-1" vertex="1">
          <mxGeometry x="340" y="340" width="290" height="70" as="geometry" />
        </mxCell>
        <mxCell id="NFaxHCr0lCRyJI4APLwD-0" value="Calendar Page" style="whiteSpace=wrap;html=1;rounded=0;" vertex="1" parent="WIyWlLk6GJQsqaUBKTNV-1">
          <mxGeometry x="534" y="485" width="120" height="60" as="geometry" />
        </mxCell>
        <mxCell id="NFaxHCr0lCRyJI4APLwD-2" value="Doctor (Personal Info)" style="whiteSpace=wrap;html=1;rounded=0;" vertex="1" parent="WIyWlLk6GJQsqaUBKTNV-1">
          <mxGeometry x="534" y="590" width="120" height="60" as="geometry" />
        </mxCell>
        <mxCell id="NFaxHCr0lCRyJI4APLwD-4" value="- View all personal information&lt;div&gt;- Button: Change Personal Info:&amp;nbsp;&lt;/div&gt;&lt;div&gt;&amp;nbsp; &amp;nbsp; &amp;nbsp; &amp;nbsp; &amp;nbsp; &amp;nbsp; &amp;nbsp; * Unlock editing mode&lt;/div&gt;&lt;div&gt;&amp;nbsp; &amp;nbsp; &amp;nbsp; &amp;nbsp; &amp;nbsp; &amp;nbsp; &amp;nbsp; * Button: Confirm Changes&amp;nbsp;&lt;/div&gt;" style="text;whiteSpace=wrap;html=1;" vertex="1" parent="WIyWlLk6GJQsqaUBKTNV-1">
          <mxGeometry x="534" y="650" width="290" height="70" as="geometry" />
        </mxCell>
        <mxCell id="NFaxHCr0lCRyJI4APLwD-5" value="&lt;div&gt;&lt;span style=&quot;background-color: transparent; color: light-dark(rgb(0, 0, 0), rgb(255, 255, 255));&quot;&gt;- Button: View appointments for the day&lt;/span&gt;&lt;br&gt;&lt;/div&gt;&lt;div&gt;&amp;nbsp; &amp;nbsp; &amp;nbsp; &amp;nbsp; &amp;nbsp; &amp;nbsp;&amp;nbsp;&lt;/div&gt;" style="text;whiteSpace=wrap;html=1;" vertex="1" parent="WIyWlLk6GJQsqaUBKTNV-1">
          <mxGeometry x="534" y="545" width="220" height="45" as="geometry" />
        </mxCell>
        <mxCell id="NFaxHCr0lCRyJI4APLwD-6" value="Patient Screen" style="whiteSpace=wrap;html=1;rounded=0;" vertex="1" parent="WIyWlLk6GJQsqaUBKTNV-1">
          <mxGeometry x="534" y="725" width="120" height="60" as="geometry" />
        </mxCell>
        <mxCell id="NFaxHCr0lCRyJI4APLwD-14" value="&lt;font style=&quot;color: rgb(255, 255, 51);&quot;&gt;View calendar button&lt;/font&gt;" style="text;html=1;align=center;verticalAlign=middle;whiteSpace=wrap;rounded=0;" vertex="1" parent="WIyWlLk6GJQsqaUBKTNV-1">
          <mxGeometry x="414" y="460" width="60" height="30" as="geometry" />
        </mxCell>
        <mxCell id="NFaxHCr0lCRyJI4APLwD-15" value="&lt;font style=&quot;color: rgb(255, 255, 51);&quot;&gt;View/Change Personal Infromation&lt;/font&gt;" style="text;html=1;align=center;verticalAlign=middle;whiteSpace=wrap;rounded=0;" vertex="1" parent="WIyWlLk6GJQsqaUBKTNV-1">
          <mxGeometry x="414" y="560" width="60" height="30" as="geometry" />
        </mxCell>
        <mxCell id="NFaxHCr0lCRyJI4APLwD-16" value="&lt;font style=&quot;color: rgb(255, 255, 51);&quot;&gt;View All Patients (Doctor Specific)&lt;/font&gt;" style="text;html=1;align=center;verticalAlign=middle;whiteSpace=wrap;rounded=0;" vertex="1" parent="WIyWlLk6GJQsqaUBKTNV-1">
          <mxGeometry x="414" y="695" width="60" height="30" as="geometry" />
        </mxCell>
        <mxCell id="NFaxHCr0lCRyJI4APLwD-17" value="- View a list of all of THEIR patients&lt;div&gt;- View a single patients recent appointments&lt;/div&gt;" style="text;whiteSpace=wrap;html=1;" vertex="1" parent="WIyWlLk6GJQsqaUBKTNV-1">
          <mxGeometry x="320" y="855" width="290" height="55" as="geometry" />
        </mxCell>
        <mxCell id="NFaxHCr0lCRyJI4APLwD-18" value="Calendar Page" style="whiteSpace=wrap;html=1;rounded=0;" vertex="1" parent="WIyWlLk6GJQsqaUBKTNV-1">
          <mxGeometry x="320" y="910" width="120" height="60" as="geometry" />
        </mxCell>
        <mxCell id="NFaxHCr0lCRyJI4APLwD-21" value="&lt;font style=&quot;color: rgb(255, 255, 51);&quot;&gt;View calendar button&lt;/font&gt;" style="text;html=1;align=center;verticalAlign=middle;whiteSpace=wrap;rounded=0;" vertex="1" parent="WIyWlLk6GJQsqaUBKTNV-1">
          <mxGeometry x="200" y="890" width="60" height="30" as="geometry" />
        </mxCell>
        <mxCell id="NFaxHCr0lCRyJI4APLwD-22" value="&lt;div&gt;- Create weekly schedule. Assign Doctors to days of the week&lt;/div&gt;" style="text;whiteSpace=wrap;html=1;" vertex="1" parent="WIyWlLk6GJQsqaUBKTNV-1">
          <mxGeometry x="320" y="970" width="220" height="45" as="geometry" />
        </mxCell>
        <mxCell id="NFaxHCr0lCRyJI4APLwD-23" value="Doctors Screen" style="whiteSpace=wrap;html=1;rounded=0;" vertex="1" parent="WIyWlLk6GJQsqaUBKTNV-1">
          <mxGeometry x="320" y="1030" width="120" height="60" as="geometry" />
        </mxCell>
        <mxCell id="NFaxHCr0lCRyJI4APLwD-26" value="&lt;font style=&quot;color: rgb(255, 255, 51);&quot;&gt;View Doctors&lt;/font&gt;" style="text;html=1;align=center;verticalAlign=middle;whiteSpace=wrap;rounded=0;" vertex="1" parent="WIyWlLk6GJQsqaUBKTNV-1">
          <mxGeometry x="200" y="1010" width="60" height="30" as="geometry" />
        </mxCell>
        <mxCell id="NFaxHCr0lCRyJI4APLwD-27" value="- View a list of all of Doctors&lt;div&gt;- Add/Remove Doctors to/from database&lt;/div&gt;" style="text;whiteSpace=wrap;html=1;" vertex="1" parent="WIyWlLk6GJQsqaUBKTNV-1">
          <mxGeometry x="320" y="1090" width="290" height="50" as="geometry" />
        </mxCell>
      </root>
    </mxGraphModel>
  </diagram>
</mxfile>
